<?xml version="1.0" standalone="no"?><!DOCTYPE svg PUBLIC "-//W3C//DTD SVG 1.1//EN" "http://www.w3.org/Graphics/SVG/1.1/DTD/svg11.dtd"><svg t="1651932381288" class="icon" viewBox="0 0 1024 1024" version="1.1" xmlns="http://www.w3.org/2000/svg" p-id="40051" xmlns:xlink="http://www.w3.org/1999/xlink" width="1000" height="1000"><defs><style type="text/css"></style></defs><path d="M512.00224 234.834c-153.338 0-277.634 141.19-277.634 353.118S402.77624 981.012 512.00224 981.012c109.21 0 277.634-181.132 277.634-393.06S665.34224 234.834 512.00224 234.834z" fill="#EAC6BB" p-id="40052"></path><path d="M744.54224 778.704L488.95424 523.118 458.80224 553.222l264.566 264.582a477.756 477.756 0 0 0 21.174-39.1z" fill="#DA4453" p-id="40053"></path><path d="M597.13424 767.836H426.76024s-85.32 79.074-85.32 127.918c0 48.718 135.554 127.418 170.562 127.918 34.976-0.5 170.546-79.2 170.546-127.918 0-48.844-85.414-127.918-85.414-127.918z" fill="#FC6E51" p-id="40054"></path><path d="M596.94824 725.176c-17.114 0-33.166-6.622-45.22-18.708-12.102-12.086-18.752-28.138-18.752-45.252 0-17.052 6.65-33.104 18.752-45.22 12.054-12.054 28.108-18.738 45.22-18.738 17.082 0 33.136 6.684 45.222 18.738 12.054 12.118 18.738 28.168 18.738 45.22 0 17.114-6.684 33.166-18.738 45.22-12.086 12.118-28.14 18.74-45.222 18.74z" fill="#ED5564" p-id="40055"></path><path d="M657.22024 600.944c-16.614-16.678-38.474-24.984-60.274-24.984-21.828 0-43.66 8.306-60.304 24.984-33.306 33.292-33.306 87.288 0 120.61a85.156 85.156 0 0 0 60.304 24.984 85.096 85.096 0 0 0 60.274-24.984c33.324-33.324 33.324-87.32 0-120.61z m-30.136 90.44a42.364 42.364 0 0 1-30.136 12.492 42.386 42.386 0 0 1-30.168-12.492c-8.056-8.056-12.492-18.738-12.492-30.168a42.36 42.36 0 0 1 12.492-30.136 42.48 42.48 0 0 1 30.168-12.46c11.368 0 22.08 4.436 30.136 12.46a42.356 42.356 0 0 1 12.492 30.136c0 11.43-4.434 22.112-12.492 30.168z" fill="#DA4453" p-id="40056"></path><path d="M426.71224 661.216c0 11.804-9.542 21.362-21.314 21.362s-21.314-9.556-21.314-21.362c0-11.742 9.542-21.298 21.314-21.298s21.314 9.556 21.314 21.298zM533.31624 810.496h-42.644c-11.774 0-21.314 9.526-21.314 21.298s9.542 21.298 21.314 21.298h42.644c11.792 0 21.314-9.526 21.314-21.298s-9.522-21.298-21.314-21.298z" fill="#434A54" p-id="40057"></path><path d="M457.56824 642.166l-85.274-42.66-0.016 0.032a21.168 21.168 0 0 0-9.526-2.28c-11.774 0-21.314 9.556-21.314 21.362 0 8.306 4.81 15.552 11.79 19.05l85.274 42.628 0.016-0.032a20.806 20.806 0 0 0 9.526 2.31c11.774 0 21.314-9.556 21.314-21.362 0-8.304-4.81-15.55-11.79-19.048z" fill="#656D78" p-id="40058"></path><path d="M985.57424 419.59c-26.732-24.016-63.802-42.628-103.06-62.304-21.954-10.994-44.656-22.392-65.114-34.666-29.606-17.8-59.804-69.018-91.754-123.234C670.83824 106.352 608.72024 0.95 512.12624 0.326h-0.264c-96.594 0.624-158.71 106.026-213.52 199.06-31.964 54.214-62.148 105.432-91.752 123.234-20.456 12.274-43.16 23.672-65.116 34.666-39.256 19.674-76.342 38.288-103.074 62.304C5.04624 449.602-6.66576 484.58 3.61024 523.554c8.276 31.48 24.36 54.84 47.782 69.456 20.378 12.742 46.174 18.926 78.856 18.926 45.768 0 101.184-12.18 159.85-25.078 68.722-15.084 146.624-32.198 221.28-32.198 74.578 0 152.62 17.082 221.484 32.166 58.898 12.93 114.55 25.11 160.522 25.11 32.792 0 58.65-6.184 79.106-18.864 23.518-14.616 39.63-38.038 47.908-69.518 10.272-38.974-1.438-73.952-34.824-103.964z" fill="#434A54" p-id="40059"></path><path d="M985.57424 419.59c-26.732-24.016-63.802-42.628-103.06-62.304-21.954-10.994-44.656-22.392-65.114-34.666-29.606-17.8-59.804-69.018-91.754-123.234C670.83824 106.352 608.72024 0.95 512.12624 0.326h-0.264a131.014 131.014 0 0 0-21.19 1.874c84.698 14.49 141.626 111.116 192.346 197.186 31.95 54.214 62.148 105.432 91.754 123.234 20.458 12.274 43.16 23.672 65.114 34.666 39.258 19.674 76.36 38.288 103.06 62.304 33.384 30.012 45.064 64.99 34.822 103.964-8.308 31.48-24.422 54.902-47.908 69.518-16.052 9.932-35.414 15.866-58.838 17.99 7.684 0.56 15.148 0.874 22.362 0.874 32.792 0 58.65-6.184 79.106-18.864 23.518-14.616 39.63-38.038 47.908-69.518 10.272-38.974-1.438-73.952-34.824-103.964z" fill="#FFFFFF" opacity=".2" p-id="40060"></path><path d="M639.57624 320.124c0-70.642-57.276-127.918-127.916-127.918-70.642 0-127.918 57.276-127.918 127.918 0 37.882 16.474 71.89 42.644 95.314v53.904h170.562v-53.904c26.172-23.424 42.628-57.434 42.628-95.314z" fill="#E6E9ED" p-id="40061"></path><path d="M479.67824 320.124c0 11.774-9.54 21.298-21.314 21.298-11.774 0-21.33-9.526-21.33-21.298s9.556-21.33 21.33-21.33c11.774-0.002 21.314 9.556 21.314 21.33zM586.26824 320.124a21.284 21.284 0 0 1-21.298 21.298c-11.806 0-21.33-9.526-21.33-21.298s9.524-21.33 21.33-21.33c11.772-0.002 21.298 9.556 21.298 21.33z" fill="#434A54" p-id="40062"></path><path d="M490.34424 448.042c-11.774 0-21.33 9.556-21.33 21.298h42.646c0-11.742-9.542-21.298-21.316-21.298z" fill="#CCD1D9" p-id="40063"></path><path d="M532.97424 448.042c-11.776 0-21.316 9.556-21.316 21.298h42.628c0.002-11.742-9.554-21.298-21.312-21.298zM575.62024 448.042c-11.776 0-21.332 9.556-21.332 21.298h42.66c0-11.742-9.556-21.298-21.328-21.298zM447.70024 448.042c-11.774 0-21.314 9.556-21.314 21.298h42.628c0-11.742-9.54-21.298-21.314-21.298z" fill="#CCD1D9" p-id="40064"></path></svg>