<?xml version="1.0" encoding="UTF-8"?>
<svg viewBox="0 0 725 725" version="1.1" xmlns="http://www.w3.org/2000/svg" xmlns:xlink="http://www.w3.org/1999/xlink">
    <title>juejin-03</title>
    <g id="页面-1" stroke="none" stroke-width="1" fill="none" fill-rule="evenodd">
        <g id="juejin-03" fill="#006CFF" fill-rule="nonzero">
            <polygon id="路径" points="325.888395 260.710716 325.888395 210.016966 197.343528 210.016966 199.154019 260.710716"></polygon>
            <path d="M362.098217,0 C162.944198,0 0,162.944198 0,362.098217 C0,561.252236 162.944198,724.196434 362.098217,724.196434 C561.252236,724.196434 724.196434,561.252236 724.196434,362.098217 C724.196434,162.944198 561.252236,0 362.098217,0 Z M141.218305,432.707369 C141.218305,454.433262 137.597322,476.159155 132.165849,496.074557 C128.544867,508.747995 124.923885,515.989959 123.113394,523.231924 L119.492412,528.663397 L117.681921,530.473888 L115.871429,528.663397 L103.197992,523.231924 L99.5770097,521.421432 L101.387501,517.80045 L105.008483,512.368977 C105.008483,512.368977 106.818974,508.747995 106.818974,506.937504 C108.629465,501.506031 110.439956,496.074557 112.250447,488.832593 C117.681921,470.727682 121.302903,450.81228 121.302903,430.896878 L121.302903,407.360494 L106.818974,421.844423 L105.008483,423.654914 L103.197992,421.844423 L92.3350453,412.791967 L90.5245543,410.981476 L92.3350453,409.170985 L121.302903,380.203128 L121.302903,262.521207 L95.9560275,262.521207 L95.9560275,240.795314 L121.302903,240.795314 L121.302903,186.480582 L143.028796,186.480582 L143.028796,240.795314 L173.807144,240.795314 L173.807144,262.521207 L141.218305,262.521207 L141.218305,360.287726 L157.512724,343.993306 L159.323215,342.182815 L162.944198,343.993306 L173.807144,353.045762 L175.617635,354.856253 L173.807144,356.666744 L143.028796,387.445092 L143.028796,432.707369 L141.218305,432.707369 Z M340.372324,305.972993 L340.372324,409.170985 L289.678574,409.170985 L289.678574,506.937504 L318.646431,506.937504 L318.646431,421.844423 L340.372324,421.844423 L340.372324,526.852906 L219.069421,526.852906 L219.069421,421.844423 L240.795314,421.844423 L240.795314,506.937504 L269.763172,506.937504 L269.763172,409.170985 L219.069421,409.170985 L219.069421,302.352011 L240.795314,302.352011 L240.795314,389.255583 L269.763172,389.255583 L269.763172,296.920538 L289.678574,296.920538 L289.678574,389.255583 L318.646431,389.255583 L318.646431,302.352011 L340.372324,302.352011 L340.372324,305.972993 Z M345.803797,280.626118 L199.154019,280.626118 C199.154019,389.255583 195.533037,477.969646 188.291073,519.610941 L186.480582,525.042415 L186.480582,528.663397 L182.8596,528.663397 L168.375671,525.042415 L164.754689,525.042415 L164.754689,521.421432 L166.56518,514.179468 C173.807144,481.590629 175.617635,416.41295 177.428126,331.319869 L177.428126,240.795314 L177.428126,190.101564 L345.803797,190.101564 L345.803797,280.626118 L345.803797,280.626118 Z M626.429915,343.993306 L626.429915,362.098217 L517.80045,362.098217 L517.80045,514.179468 L554.010272,514.179468 L575.736165,387.445092 L575.736165,383.82411 L579.357147,383.82411 L593.841076,385.634601 L597.462058,385.634601 L597.462058,389.255583 L575.736165,512.368977 L615.566969,512.368977 L615.566969,534.09487 L410.981476,534.09487 L410.981476,512.368977 L443.570316,512.368977 L421.844423,389.255583 L421.844423,385.634601 L425.465405,385.634601 L439.949334,383.82411 L443.570316,383.82411 L443.570316,387.445092 L465.296209,514.179468 L497.885048,514.179468 L497.885048,362.098217 L400.11853,362.098217 L400.11853,340.372324 L497.885048,340.372324 L497.885048,275.194645 L434.51786,275.194645 L434.51786,253.468752 L588.409603,253.468752 L588.409603,275.194645 L521.421433,275.194645 L521.421433,340.372324 L630.050898,340.372324 L630.050898,343.993306 L626.429915,343.993306 Z M622.808933,278.815627 L620.998442,280.626118 L619.187951,278.815627 L543.147326,210.016966 L474.348664,210.016966 L398.308039,278.815627 L396.497548,280.626118 L394.687057,278.815627 L385.634601,267.952681 L380.203128,266.14219 L382.013619,264.331698 L463.485718,191.912055 L552.199781,191.912055 L633.67188,264.331698 L635.482371,266.14219 L633.67188,267.952681 L622.808933,278.815627 L622.808933,278.815627 Z" id="形状"></path>
        </g>
    </g>
</svg>