<?xml version="1.0" standalone="no"?><!DOCTYPE svg PUBLIC "-//W3C//DTD SVG 1.1//EN" "http://www.w3.org/Graphics/SVG/1.1/DTD/svg11.dtd"><svg t="1651935394152" class="icon" viewBox="0 0 1024 1024" version="1.1" xmlns="http://www.w3.org/2000/svg" p-id="88213" xmlns:xlink="http://www.w3.org/1999/xlink" width="1000" height="1000"><defs><style type="text/css"></style></defs><path d="M704.0768 506.9312c-14.08 0-22.528 11.264-22.528 25.344 0 11.264 11.264 22.528 22.528 22.528 16.896 0 28.16-11.264 28.16-22.528 0-14.08-11.264-25.344-28.16-25.344z m-368.9472-168.96c-16.896 0-36.608 11.264-36.608 28.16 0 16.896 16.896 28.16 36.608 28.16 8.448 0 14.08-2.816 19.712-8.448 5.632-5.632 8.448-14.08 8.448-19.712 0-8.448-2.816-14.08-8.448-19.712-5.632-5.632-14.08-8.448-19.712-8.448z m419.6352 377.344l16.896 59.1616-61.952-36.608c-25.344 5.632-47.872 11.264-70.4 11.264-109.824 0-197.1456-76.032-197.1456-168.96 0-92.9536 87.296-168.9856 197.12-168.9856 104.192 0 199.9616 76.032 199.9616 168.96-2.816 56.32-36.608 101.376-84.48 135.168z m-343.5776-78.848c-28.16 0-56.32-5.632-81.664-14.08l-84.5056 42.24 25.344-70.4c-59.136-42.24-92.928-92.928-92.928-157.696 0-112.64 107.008-197.1456 233.728-197.1456 112.6656 0 216.8576 67.584 233.7792 163.328-8.448-2.816-14.08-2.816-22.528-2.816-112.6656 0-199.9616 84.48-199.9616 185.8816 0 16.896 2.816 33.792 5.632 50.688h-16.896zM506.9312 0C228.1216 0 0 228.096 0 506.9312c0 278.8096 228.096 506.9312 506.9312 506.9312 278.8096 0 506.9312-228.096 506.9312-506.9312C1013.8624 228.1216 785.7664 0 506.9312 0z m-8.448 394.2912c8.448 0 16.896-2.816 22.528-8.448 5.632-5.632 8.448-14.08 8.448-19.712 0-8.448-2.816-16.896-8.448-22.528-8.448-2.816-14.08-5.632-22.528-5.632-16.896 0-33.792 11.264-33.792 28.16 0 16.896 16.896 28.16 33.792 28.16z m76.032 112.64c-14.08 0-22.528 11.264-22.528 25.344 0 11.264 11.264 19.712 22.528 22.528 16.896 0 28.16-11.264 28.16-22.528 0-14.08-11.264-25.344-28.16-25.344z" fill="#19D100" p-id="88214"></path></svg>